HIERARCHY
ROOT joint_Root
{
	OFFSET 0.0 0.0 0.0
	CHANNELS 6 Xposition Yposition Zposition Zrotation Xrotation Yrotation 
	JOINT Hips
	{
		OFFSET -0.726466 93.3139 -2.00062
		CHANNELS 6 Xposition Yposition Zposition Zrotation Xrotation Yrotation 
		JOINT Spine
		{
			OFFSET 15.7357 0.0 0.0
			CHANNELS 6 Xposition Yposition Zposition Zrotation Xrotation Yrotation 
			JOINT Chest
			{
				OFFSET 8.98455 -0.406207 0.0
				CHANNELS 6 Xposition Yposition Zposition Zrotation Xrotation Yrotation 
				JOINT Neck
				{
					OFFSET 16.3773 0.0 0.0
					CHANNELS 6 Xposition Yposition Zposition Zrotation Xrotation Yrotation 
					JOINT Head
					{
						OFFSET 6.45672 0.0 0.0
						CHANNELS 6 Xposition Yposition Zposition Zrotation Xrotation Yrotation 
						End Site
						{
							OFFSET 0.0 0.0 0.0
						}
					}
				}
				JOINT Shoulder_L
				{
					OFFSET 12.9942 -0.242716 4.98039
					CHANNELS 6 Xposition Yposition Zposition Zrotation Xrotation Yrotation 
					JOINT UpperArm_L
					{
						OFFSET 5.34809 0.0 0.0
						CHANNELS 6 Xposition Yposition Zposition Zrotation Xrotation Yrotation 
						JOINT LowerArm_L
						{
							OFFSET 24.3286 1.87007e-05 0.0
							CHANNELS 6 Xposition Yposition Zposition Zrotation Xrotation Yrotation 
							JOINT Hand_L
							{
								OFFSET 22.2916 0.0 0.0
								CHANNELS 6 Xposition Yposition Zposition Zrotation Xrotation Yrotation 
								End Site
								{
									OFFSET 0.0 0.0 0.0
								}
							}
						}
					}
				}
				JOINT Shoulder_R
				{
					OFFSET 12.9945 -0.242716 -4.98039
					CHANNELS 6 Xposition Yposition Zposition Zrotation Xrotation Yrotation 
					JOINT UpperArm_R
					{
						OFFSET -5.34813 0.0 0.0
						CHANNELS 6 Xposition Yposition Zposition Zrotation Xrotation Yrotation 
						JOINT LowerArm_R
						{
							OFFSET -24.3289 0.000322201 0.0
							CHANNELS 6 Xposition Yposition Zposition Zrotation Xrotation Yrotation 
							JOINT Hand_R
							{
								OFFSET -22.2915 -0.000108084 0.0
								CHANNELS 6 Xposition Yposition Zposition Zrotation Xrotation Yrotation 
								End Site
								{
									OFFSET 0.0 0.0 0.0
								}
							}
						}
					}
				}
			}
		}
		JOINT UpperLeg_L
		{
			OFFSET -2.19248 -6.46944 0.0
			CHANNELS 6 Xposition Yposition Zposition Zrotation Xrotation Yrotation 
			JOINT LowerLeg_L
			{
				OFFSET 39.0811 0.0 -1.23785e-05
				CHANNELS 6 Xposition Yposition Zposition Zrotation Xrotation Yrotation 
				JOINT Foot_L
				{
					OFFSET 40.9854 0.0 -1.26872e-05
					CHANNELS 6 Xposition Yposition Zposition Zrotation Xrotation Yrotation 
					JOINT Toes_L
					{
						OFFSET 11.7543 0.0 0.0
						CHANNELS 6 Xposition Yposition Zposition Zrotation Xrotation Yrotation 
						End Site
						{
							OFFSET 0.0 0.0 0.0
						}
					}
				}
			}
		}
		JOINT UpperLeg_R
		{
			OFFSET -2.19251 6.46944 0.0
			CHANNELS 6 Xposition Yposition Zposition Zrotation Xrotation Yrotation 
			JOINT LowerLeg_R
			{
				OFFSET -39.0811 -0.00228153 -0.0401928
				CHANNELS 6 Xposition Yposition Zposition Zrotation Xrotation Yrotation 
				JOINT Foot_R
				{
					OFFSET -40.9854 0.0 0.0
					CHANNELS 6 Xposition Yposition Zposition Zrotation Xrotation Yrotation 
					JOINT Toes_R
					{
						OFFSET -11.7543 0.0 0.0
						CHANNELS 6 Xposition Yposition Zposition Zrotation Xrotation Yrotation 
						End Site
						{
							OFFSET 0.0 0.0 0.0
						}
					}
				}
			}
		}
	}
}
MOTION
Frames:	7
Frame Time:	0.0333333
0.000000 0.000000 0.000000 0.000000 0.000000 -0.000000 114.480000 87.572400 169.378000 -84.662300 51.436100 178.198000 15.735700 0.000005 -0.000001 104.113000 82.938800 -103.971000 8.984550 -0.406207 -0.000000 5.934210 3.432260 0.106319 16.377300 -0.000001 -0.000001 2.952880 9.458130 0.276386 6.456720 -0.000001 -0.000000 2.208430 12.802200 -4.075800 12.994200 -0.242716 4.980390 -89.567100 -1.050020 -67.594500 5.348090 -0.000007 -0.000001 -72.175100 6.845280 3.288770 24.328600 0.000019 0.000005 1.521350 11.001100 -7.923310 22.291600 -0.000001 0.000005 10.879500 5.279010 0.662145 12.994500 -0.242716 -4.980390 88.197000 6.480940 -74.417200 -5.348130 -0.000001 -0.000004 -51.823100 9.070910 -32.928800 -24.328900 0.000322 -0.000009 1.813060 3.918550 -24.867300 -22.291500 -0.000108 -0.000004 16.954000 5.400750 -2.961480 -2.192480 -6.469440 -0.000000 173.185000 -15.002900 -30.900800 39.081100 -0.000007 -0.000012 0.146733 -0.301985 25.915000 40.985400 -0.000006 -0.000013 12.437500 -13.721800 -45.543100 11.754300 -0.000000 0.000003 -0.007190 -0.081295 -19.886500 -2.192510 6.469440 -0.000001 168.313000 16.233600 -171.921000 -39.081100 -0.002282 -0.040193 0.047791 -0.055781 38.586900 -40.985400 0.000008 0.000006 -3.935480 1.260060 -57.749000 -11.754300 -0.000006 -0.000006 -0.152947 -0.560523 -40.297400
0.000000 0.000000 0.000000 0.000000 0.000000 -0.000000 117.287000 87.660200 165.590000 -85.372800 49.446700 -179.979000 15.735700 0.000005 -0.000001 102.125000 82.631000 -102.188000 8.984550 -0.406207 -0.000000 6.652310 3.086590 -0.305215 16.377300 -0.000001 -0.000001 2.877620 8.912920 -0.047190 6.456720 -0.000001 -0.000000 1.948710 12.270000 -3.972380 12.994200 -0.242716 4.980390 -89.445500 -1.372210 -67.993600 5.348090 -0.000007 -0.000001 -74.862400 10.425400 1.671380 24.328600 0.000019 0.000005 1.846860 12.714000 -8.334340 22.291600 -0.000001 0.000005 5.653180 5.272620 0.827004 12.994500 -0.242716 -4.980390 88.328700 5.853870 -74.035200 -5.348130 -0.000001 -0.000004 -55.687300 10.296400 -28.780100 -24.328900 0.000322 -0.000009 1.587900 3.147000 -26.812300 -22.291500 -0.000108 -0.000004 17.199500 5.414360 -3.410120 -2.192480 -6.469440 -0.000000 173.057000 -13.817600 -29.382800 39.081100 -0.000007 -0.000012 0.065194 -0.102931 32.348900 40.985400 -0.000006 -0.000013 10.916400 -13.430500 -52.127200 11.754300 -0.000000 0.000003 -0.003792 -0.049270 -18.580900 -2.192510 6.469440 -0.000001 167.874000 14.472100 -173.636000 -39.081100 -0.002282 -0.040193 0.177490 -0.171057 45.526300 -40.985400 0.000008 0.000006 -1.221640 -1.464400 -47.308500 -11.754300 -0.000006 -0.000006 -0.196294 -0.638912 -43.929700
0.000000 0.000000 0.000000 0.000000 0.000000 -0.000000 119.638000 87.810500 161.934000 -85.863800 47.404100 -178.950000 15.735700 0.000005 -0.000001 100.795000 82.528500 -100.853000 8.984550 -0.406207 -0.000000 6.920230 2.789840 -0.285025 16.377300 -0.000001 -0.000001 3.102170 8.567140 -0.514797 6.456720 -0.000001 -0.000000 2.176720 11.994900 -4.883690 12.994200 -0.242716 4.980390 -89.445200 -1.392820 -68.276900 5.348090 -0.000007 -0.000001 -77.296100 16.019000 -0.509538 24.328600 0.000019 0.000005 2.059740 11.813100 -9.965900 22.291600 -0.000001 0.000005 1.551680 5.299630 0.073402 12.994500 -0.242716 -4.980390 88.500300 5.154120 -73.752200 -5.348130 -0.000001 -0.000004 -58.272400 13.130500 -24.834800 -24.328900 0.000322 -0.000009 0.713467 1.346830 -27.955100 -22.291500 -0.000108 -0.000004 15.773300 5.433580 -4.067630 -2.192480 -6.469440 -0.000000 172.418000 -13.697200 -27.177700 39.081100 -0.000007 -0.000012 0.015309 -0.021396 35.581500 40.985400 -0.000006 -0.000013 10.487900 -12.488200 -57.102800 11.754300 -0.000000 0.000003 -0.002175 -0.030894 -17.833000 -2.192510 6.469440 -0.000001 168.706000 11.148600 -178.083000 -39.081100 -0.002282 -0.040193 0.243404 -0.177432 53.544100 -40.985400 0.000008 0.000006 0.406845 -5.034930 -35.535600 -11.754300 -0.000006 -0.000006 -0.079569 -0.390735 -32.793200
0.000000 0.000000 0.000000 0.000000 0.000000 -0.000000 121.608000 87.779300 158.702000 -86.896900 44.786700 -177.803000 15.735700 0.000005 -0.000001 97.944000 82.480100 -98.117400 8.984550 -0.406207 -0.000000 7.136060 2.072170 -0.475632 16.377300 -0.000001 -0.000001 3.200420 8.417930 -1.040740 6.456720 -0.000001 -0.000000 2.505100 12.004800 -5.324900 12.994200 -0.242716 4.980390 -89.605100 -1.002180 -68.493700 5.348090 -0.000007 -0.000001 -78.349300 22.682400 -3.428790 24.328600 0.000019 0.000005 2.127360 9.158720 -13.141700 22.291600 -0.000001 0.000005 0.105499 5.326350 -0.680167 12.994500 -0.242716 -4.980390 88.386600 5.411800 -73.372200 -5.348130 -0.000001 -0.000004 -58.691600 17.857900 -21.959400 -24.328900 0.000322 -0.000009 0.971140 1.808360 -28.268700 -22.291500 -0.000108 -0.000004 12.098900 5.435280 -4.117650 -2.192480 -6.469440 -0.000000 171.377000 -13.221000 -24.975300 39.081100 -0.000007 -0.000012 0.017078 -0.022075 37.723800 40.985400 -0.000006 -0.000013 10.436900 -11.293500 -61.138900 11.754300 -0.000000 0.000003 -0.001470 -0.021874 -17.466200 -2.192510 6.469440 -0.000001 169.587000 8.220180 176.873000 -39.081100 -0.002282 -0.040193 0.192960 -0.105370 60.958200 -40.985400 0.000008 0.000006 2.549930 -4.627530 -28.323000 -11.754300 -0.000006 -0.000006 -0.027849 -0.207430 -25.066000
0.000000 0.000000 0.000000 0.000000 0.000000 -0.000000 123.541000 88.103500 155.624000 -87.252700 41.546600 -177.230000 15.735700 0.000005 -0.000001 94.095600 82.468400 -94.219900 8.984550 -0.406207 -0.000000 7.260890 1.072460 -0.316451 16.377300 -0.000001 -0.000001 3.402050 8.128510 -1.467190 6.456720 -0.000001 -0.000000 2.762720 12.137300 -5.219840 12.994200 -0.242716 4.980390 -89.723200 -0.711103 -68.729500 5.348090 -0.000007 -0.000001 -77.872900 30.118100 -7.047060 24.328600 0.000019 0.000005 2.129100 6.600880 -17.933200 22.291600 -0.000001 0.000005 1.505900 5.376300 -2.169540 12.994500 -0.242716 -4.980390 88.233100 5.738290 -72.853600 -5.348130 -0.000001 -0.000004 -58.727400 23.600900 -19.703600 -24.328900 0.000322 -0.000009 3.083230 5.795590 -28.087200 -22.291500 -0.000108 -0.000004 7.886750 5.435470 -4.128420 -2.192480 -6.469440 -0.000000 171.073000 -11.817100 -21.676600 39.081100 -0.000007 -0.000012 0.014850 -0.019158 37.776200 40.985400 -0.000006 -0.000013 10.403500 -10.194900 -63.980200 11.754300 -0.000000 0.000003 -0.000945 -0.014621 -17.171400 -2.192510 6.469440 -0.000001 170.775000 5.652570 172.493000 -39.081100 -0.002282 -0.040193 0.095265 -0.038522 67.307000 -40.985400 0.000008 0.000006 1.360860 0.328828 -34.231700 -11.754300 -0.000006 -0.000006 -0.027954 -0.207930 -25.086800
0.000000 0.000000 0.000000 0.000000 0.000000 -0.000000 125.401000 88.586400 152.791000 -86.660300 37.654500 -177.379000 15.735700 0.000005 -0.000001 89.463400 82.471800 -89.191200 8.984550 -0.406207 -0.000000 7.290070 -0.141629 0.552882 16.377300 -0.000001 -0.000001 3.752400 7.591690 -1.655790 6.456720 -0.000001 -0.000000 3.006790 12.165600 -5.290000 12.994200 -0.242716 4.980390 -89.821500 -0.474246 -69.371300 5.348090 -0.000007 -0.000001 -75.619600 37.403900 -11.652400 24.328600 0.000019 0.000005 2.106030 4.774150 -23.845700 22.291600 -0.000001 0.000005 4.409390 5.432970 -4.021920 12.994500 -0.242716 -4.980390 88.265400 5.402510 -72.168900 -5.348130 -0.000001 -0.000004 -59.731400 29.332700 -17.443900 -24.328900 0.000322 -0.000009 5.382930 10.247100 -27.915000 -22.291500 -0.000108 -0.000004 5.499940 5.437670 -4.202170 -2.192480 -6.469440 -0.000000 171.659000 -9.860620 -18.085100 39.081100 -0.000007 -0.000012 0.017015 -0.022695 36.857200 40.985400 -0.000006 -0.000013 10.453700 -8.752550 -66.128400 11.754300 -0.000000 0.000003 -0.000743 -0.011686 -17.052200 -2.192510 6.469440 -0.000001 172.319000 4.408660 168.304000 -39.081100 -0.002282 -0.040193 0.040852 -0.013562 70.235000 -40.985400 0.000008 0.000006 -0.586433 2.159200 -38.293200 -11.754300 -0.000006 -0.000006 -0.027704 -0.206740 -25.037400
0.000000 0.000000 0.000000 0.000000 0.000000 -0.000000 127.282000 89.191200 150.099000 -85.824200 33.343000 -177.350000 15.735700 0.000005 -0.000001 85.046600 82.386200 -84.250600 8.984550 -0.406207 -0.000000 7.415840 -1.312310 1.675410 16.377300 -0.000001 -0.000001 4.058950 6.673290 -1.831120 6.456720 -0.000001 -0.000000 3.321720 11.943400 -4.818610 12.994200 -0.242716 4.980390 -89.844800 -0.435302 -70.376000 5.348090 -0.000007 -0.000001 -71.335600 43.680900 -17.563100 24.328600 0.000019 0.000005 2.044840 3.474470 -30.515000 22.291600 -0.000001 0.000005 7.103460 5.484950 -5.915110 12.994500 -0.242716 -4.980390 88.364900 4.832450 -71.281000 -5.348130 -0.000001 -0.000004 -62.205500 33.135200 -14.092300 -24.328900 0.000322 -0.000009 6.332400 12.050700 -27.996300 -22.291500 -0.000108 -0.000004 3.948220 5.425270 -3.775690 -2.192480 -6.469440 -0.000000 172.829000 -7.957010 -13.883400 39.081100 -0.000007 -0.000012 0.003584 -0.005098 35.098200 40.985400 -0.000006 -0.000013 10.601300 -6.504790 -67.799300 11.754300 -0.000000 0.000003 -0.000259 -0.004248 -16.750000 -2.192510 6.469440 -0.000001 174.023000 4.160230 165.101000 -39.081100 -0.002282 -0.040193 0.001292 0.000676 69.689800 -40.985400 0.000008 0.000006 -0.607842 0.094489 -41.358500 -11.754300 -0.000006 -0.000006 -0.026241 -0.199688 -24.745500
